# Made in Blockbench 5.0.7
mtllib reader.mtl

o one
v 0.3125 0.8125 -0.375
v 0.3125 0.8125 -0.5
v 0.3125 0.1875 -0.375
v 0.3125 0.1875 -0.5
v -0.3125 0.8125 -0.5
v -0.3125 0.8125 -0.375
v -0.3125 0.1875 -0.5
v -0.3125 0.1875 -0.375
vt 0.125 0.875
vt 0.75 0.875
vt 0.75 0.25
vt 0.125 0.25
vt 0 0.875
vt 0.125 0.875
vt 0.125 0.25
vt 0 0.25
vt 0.125 0.875
vt 0.75 0.875
vt 0.75 0.25
vt 0.125 0.25
vt 0.75 0.875
vt 0.875 0.875
vt 0.875 0.25
vt 0.75 0.25
vt 0.125 1
vt 0.75 1
vt 0.75 0.875
vt 0.125 0.875
vt 0.125 0.25
vt 0.75 0.25
vt 0.75 0.125
vt 0.125 0.125
vn 0 0 -1
vn 1 0 0
vn 0 0 1
vn -1 0 0
vn 0 1 0
vn 0 -1 0
usemtl m_14c4c575-8356-a569-c05d-81a9ddf9f48e
f 4/4/1 7/3/1 5/2/1 2/1/1
f 3/8/2 4/7/2 2/6/2 1/5/2
f 8/12/3 3/11/3 1/10/3 6/9/3
f 7/16/4 8/15/4 6/14/4 5/13/4
f 6/20/5 1/19/5 2/18/5 5/17/5
f 7/24/6 4/23/6 3/22/6 8/21/6
o two
v 0.25 0.75 -0.3125
v 0.25 0.75 -0.375
v 0.25 0.25 -0.3125
v 0.25 0.25 -0.375
v -0.25 0.75 -0.375
v -0.25 0.75 -0.3125
v -0.25 0.25 -0.375
v -0.25 0.25 -0.3125
vt 0.0625 0.9375
vt 0.5625 0.9375
vt 0.5625 0.4375
vt 0.0625 0.4375
vt 0.875 1
vt 0.9375 1
vt 0.9375 0.5
vt 0.875 0.5
vt 0.1875 0.8125
vt 0.6875 0.8125
vt 0.6875 0.3125
vt 0.1875 0.3125
vt 0.875 1
vt 0.9375 1
vt 0.9375 0.5
vt 0.875 0.5
vt 0 0.125
vt 0.5 0.125
vt 0.5 0.0625
vt 0 0.0625
vt 0 0.125
vt 0.5 0.125
vt 0.5 0.0625
vt 0 0.0625
vn 0 0 -1
vn 1 0 0
vn 0 0 1
vn -1 0 0
vn 0 1 0
vn 0 -1 0
usemtl m_7113fd87-f078-bfea-0c2c-ab52ad58a33b
f 12/28/7 15/27/7 13/26/7 10/25/7
usemtl m_14c4c575-8356-a569-c05d-81a9ddf9f48e
f 11/32/8 12/31/8 10/30/8 9/29/8
f 16/36/9 11/35/9 9/34/9 14/33/9
f 15/40/10 16/39/10 14/38/10 13/37/10
f 14/44/11 9/43/11 10/42/11 13/41/11
f 15/48/12 12/47/12 11/46/12 16/45/12
o three
v 0.1875 0.6875 -0.25
v 0.1875 0.6875 -0.3125
v 0.1875 0.3125 -0.25
v 0.1875 0.3125 -0.3125
v -0.1875 0.6875 -0.3125
v -0.1875 0.6875 -0.25
v -0.1875 0.3125 -0.3125
v -0.1875 0.3125 -0.25
vt 0.9375 1
vt 1 1
vt 1 0.625
vt 0.9375 0.625
vt 0.125 0.875
vt 0.5 0.875
vt 0.5 0.5
vt 0.125 0.5
vt 0.9375 1
vt 1 1
vt 1 0.625
vt 0.9375 0.625
vt 0 0.0625
vt 0.375 0.0625
vt 0.375 0
vt 0 0
vt 0 0.0625
vt 0.375 0.0625
vt 0.375 0
vt 0 0
vn 1 0 0
vn 0 0 1
vn -1 0 0
vn 0 1 0
vn 0 -1 0
usemtl m_14c4c575-8356-a569-c05d-81a9ddf9f48e
f 19/52/13 20/51/13 18/50/13 17/49/13
usemtl m_7113fd87-f078-bfea-0c2c-ab52ad58a33b
f 24/56/14 19/55/14 17/54/14 22/53/14
usemtl m_14c4c575-8356-a569-c05d-81a9ddf9f48e
f 23/60/15 24/59/15 22/58/15 21/57/15
f 22/64/16 17/63/16 18/62/16 21/61/16
f 23/68/17 20/67/17 19/66/17 24/65/17
o four
v 0.125 0.625 -0.1875
v 0.125 0.625 -0.1875
v 0.125 0.375 -0.1875
v 0.125 0.375 -0.1875
v -0.125 0.625 -0.1875
v -0.125 0.625 -0.1875
v -0.125 0.375 -0.1875
v -0.125 0.375 -0.1875
vt 0.9375 0.5
vt 1 0.5
vt 1 0.25
vt 0.9375 0.25
vt 0 1
vt 0.25 1
vt 0.25 0.75
vt 0 0.75
vt 0.9375 0.5
vt 1 0.5
vt 1 0.25
vt 0.9375 0.25
vt 0.5 0.0625
vt 0.75 0.0625
vt 0.75 0
vt 0.5 0
vt 0.5 0.0625
vt 0.75 0.0625
vt 0.75 0
vt 0.5 0
vn 1 0 0
vn 0 0 1
vn -1 0 0
vn 0 1 0
vn 0 -1 0
usemtl m_14c4c575-8356-a569-c05d-81a9ddf9f48e
f 27/72/18 28/71/18 26/70/18 25/69/18
usemtl m_7113fd87-f078-bfea-0c2c-ab52ad58a33b
f 32/76/19 27/75/19 25/74/19 30/73/19
usemtl m_14c4c575-8356-a569-c05d-81a9ddf9f48e
f 31/80/20 32/79/20 30/78/20 29/77/20
f 30/84/21 25/83/21 26/82/21 29/81/21
f 31/88/22 28/87/22 27/86/22 32/85/22
o back
v 0.125 0.625 -0.1875
v 0.125 0.625 -0.1875
v 0.125 0.375 -0.1875
v 0.125 0.375 -0.1875
v -0.125 0.625 -0.1875
v -0.125 0.625 -0.1875
v -0.125 0.375 -0.1875
v -0.125 0.375 -0.1875
vt 0.9375 0.5
vt 1 0.5
vt 1 0.25
vt 0.9375 0.25
vt 0.1875 0.8125
vt 0.4375 0.8125
vt 0.4375 0.5625
vt 0.1875 0.5625
vt 0.9375 0.5
vt 1 0.5
vt 1 0.25
vt 0.9375 0.25
vt 0.5 0.0625
vt 0.75 0.0625
vt 0.75 0
vt 0.5 0
vt 0.5 0.0625
vt 0.75 0.0625
vt 0.75 0
vt 0.5 0
vn 1 0 0
vn 0 0 1
vn -1 0 0
vn 0 1 0
vn 0 -1 0
usemtl m_14c4c575-8356-a569-c05d-81a9ddf9f48e
f 35/92/23 36/91/23 34/90/23 33/89/23
usemtl m_7113fd87-f078-bfea-0c2c-ab52ad58a33b
f 40/96/24 35/95/24 33/94/24 38/93/24
usemtl m_14c4c575-8356-a569-c05d-81a9ddf9f48e
f 39/100/25 40/99/25 38/98/25 37/97/25
f 38/104/26 33/103/26 34/102/26 37/101/26
f 39/108/27 36/107/27 35/106/27 40/105/27
