# Made in Blockbench 5.0.7
mtllib writer.mtl

o one
v 0.125 0.375 -0.5
v 0.125 0.375 -0.375
v 0.125 0.625 -0.5
v 0.125 0.625 -0.375
v -0.125 0.375 -0.375
v -0.125 0.375 -0.5
v -0.125 0.625 -0.375
v -0.125 0.625 -0.5
vt 0 1
vt 0.25 1
vt 0.25 0.75
vt 0 0.75
vt 0.875 0.5
vt 1 0.5
vt 1 0.25
vt 0.875 0.25
vt 0.3125 0.6875
vt 0.5625 0.6875
vt 0.5625 0.4375
vt 0.3125 0.4375
vt 0.875 0.5
vt 1 0.5
vt 1 0.25
vt 0.875 0.25
vt 0.5 0.125
vt 0.75 0.125
vt 0.75 0
vt 0.5 0
vt 0.5 0.125
vt 0.75 0.125
vt 0.75 0
vt 0.5 0
vn 0 -1.2246467991473532e-16 1
vn 1 0 0
vn 0 1.2246467991473532e-16 -1
vn -1 0 0
vn 0 -1 -1.2246467991473532e-16
vn 0 1 1.2246467991473532e-16
usemtl m_3c0e8ad5-8b38-e4bb-bd4b-472697003f96
f 4/4/1 7/3/1 5/2/1 2/1/1
f 3/8/2 4/7/2 2/6/2 1/5/2
f 8/12/3 3/11/3 1/10/3 6/9/3
f 7/16/4 8/15/4 6/14/4 5/13/4
f 6/20/5 1/19/5 2/18/5 5/17/5
f 7/24/6 4/23/6 3/22/6 8/21/6
o two
v 0.1875 0.3125000000000001 -0.3750000000000001
v 0.1875 0.3125000000000001 -0.3125000000000001
v 0.1875 0.6875000000000001 -0.375
v 0.1875 0.6875000000000001 -0.3125
v -0.1875 0.3125000000000001 -0.3125000000000001
v -0.1875 0.3125000000000001 -0.3750000000000001
v -0.1875 0.6875000000000001 -0.3125
v -0.1875 0.6875000000000001 -0.375
vt 0 1
vt 0.375 1
vt 0.375 0.625
vt 0 0.625
vt 0.9375 1
vt 1 1
vt 1 0.625
vt 0.9375 0.625
vt 0.25 0.75
vt 0.625 0.75
vt 0.625 0.375
vt 0.25 0.375
vt 0.9375 1
vt 1 1
vt 1 0.625
vt 0.9375 0.625
vt 0 0.0625
vt 0.375 0.0625
vt 0.375 0
vt 0 0
vt 0 0.0625
vt 0.375 0.0625
vt 0.375 0
vt 0 0
vn 0 -1.2246467991473532e-16 1
vn 1 0 0
vn 0 1.2246467991473532e-16 -1
vn -1 0 0
vn 0 -1 -1.2246467991473532e-16
vn 0 1 1.2246467991473532e-16
usemtl m_3c0e8ad5-8b38-e4bb-bd4b-472697003f96
f 12/28/7 15/27/7 13/26/7 10/25/7
f 11/32/8 12/31/8 10/30/8 9/29/8
f 16/36/9 11/35/9 9/34/9 14/33/9
f 15/40/10 16/39/10 14/38/10 13/37/10
f 14/44/11 9/43/11 10/42/11 13/41/11
f 15/48/12 12/47/12 11/46/12 16/45/12
o three
v 0.250625 0.249375 -0.3131250000000002
v 0.250625 0.249375 -0.249375
v 0.250625 0.7506250000000002 -0.3131250000000001
v 0.250625 0.7506250000000002 -0.2493749999999999
v -0.250625 0.249375 -0.249375
v -0.250625 0.249375 -0.3131250000000002
v -0.250625 0.7506250000000002 -0.2493749999999999
v -0.250625 0.7506250000000002 -0.3131250000000001
vt 0 1
vt 0.5 1
vt 0.5 0.5
vt 0 0.5
vt 0.875 1
vt 0.9375 1
vt 0.9375 0.5
vt 0.875 0.5
vt 0.1875 0.8125
vt 0.6875 0.8125
vt 0.6875 0.3125
vt 0.1875 0.3125
vt 0.875 1
vt 0.9375 1
vt 0.9375 0.5
vt 0.875 0.5
vt 0 0.125
vt 0.5 0.125
vt 0.5 0.0625
vt 0 0.0625
vt 0 0.125
vt 0.5 0.125
vt 0.5 0.0625
vt 0 0.0625
vn 0 -1.2246467991473532e-16 1
vn 1 0 0
vn 0 1.2246467991473532e-16 -1
vn -1 0 0
vn 0 -1 -1.2246467991473532e-16
vn 0 1 1.2246467991473532e-16
usemtl m_3c0e8ad5-8b38-e4bb-bd4b-472697003f96
f 20/52/13 23/51/13 21/50/13 18/49/13
f 19/56/14 20/55/14 18/54/14 17/53/14
f 24/60/15 19/59/15 17/58/15 22/57/15
f 23/64/16 24/63/16 22/62/16 21/61/16
f 22/68/17 17/67/17 18/66/17 21/65/17
f 23/72/18 20/71/18 19/70/18 24/69/18
o four
v 0.3125 0.1875000000000001 -0.2500000000000001
v 0.3125 0.1875000000000001 -0.1875000000000001
v 0.3125 0.8125000000000001 -0.25
v 0.3125 0.8125000000000001 -0.1875
v -0.3125 0.1875000000000001 -0.1875000000000001
v -0.3125 0.1875000000000001 -0.2500000000000001
v -0.3125 0.8125000000000001 -0.1875
v -0.3125 0.8125000000000001 -0.25
vt 0.0625 0.875
vt 0.125 0.875
vt 0.125 0.25
vt 0.0625 0.25
vt 0.125 0.875
vt 0.75 0.875
vt 0.75 0.25
vt 0.125 0.25
vt 0.75 0.875
vt 0.8125 0.875
vt 0.8125 0.25
vt 0.75 0.25
vt 0.125 0.9375
vt 0.75 0.9375
vt 0.75 0.875
vt 0.125 0.875
vt 0.125 0.25
vt 0.75 0.25
vt 0.75 0.1875
vt 0.125 0.1875
vn 1 0 0
vn 0 1.2246467991473532e-16 -1
vn -1 0 0
vn 0 -1 -1.2246467991473532e-16
vn 0 1 1.2246467991473532e-16
usemtl m_3c0e8ad5-8b38-e4bb-bd4b-472697003f96
f 27/76/19 28/75/19 26/74/19 25/73/19
f 32/80/20 27/79/20 25/78/20 30/77/20
f 31/84/21 32/83/21 30/82/21 29/81/21
f 30/88/22 25/87/22 26/86/22 29/85/22
f 31/92/23 28/91/23 27/90/23 32/89/23
o back
v 0.3125 0.1875000000000001 -0.1875000000000001
v 0.3125 0.1875000000000001 -0.1875000000000001
v 0.3125 0.8125000000000001 -0.1875
v 0.3125 0.8125000000000001 -0.1875
v -0.3125 0.1875000000000001 -0.1875000000000001
v -0.3125 0.1875000000000001 -0.1875000000000001
v -0.3125 0.8125000000000001 -0.1875
v -0.3125 0.8125000000000001 -0.1875
vt 0 1
vt 0.625 1
vt 0.625 0.375
vt 0 0.375
vt 0.0625 0.875
vt 0.125 0.875
vt 0.125 0.25
vt 0.0625 0.25
vt 0.125 0.875
vt 0.75 0.875
vt 0.75 0.25
vt 0.125 0.25
vt 0.75 0.875
vt 0.8125 0.875
vt 0.8125 0.25
vt 0.75 0.25
vt 0.125 0.9375
vt 0.75 0.9375
vt 0.75 0.875
vt 0.125 0.875
vt 0.125 0.25
vt 0.75 0.25
vt 0.75 0.1875
vt 0.125 0.1875
vn 0 -1.2246467991473532e-16 1
vn 1 0 0
vn 0 1.2246467991473532e-16 -1
vn -1 0 0
vn 0 -1 -1.2246467991473532e-16
vn 0 1 1.2246467991473532e-16
usemtl m_20cba025-36f3-1617-ca4a-13574660be37
f 36/96/24 39/95/24 37/94/24 34/93/24
usemtl m_3c0e8ad5-8b38-e4bb-bd4b-472697003f96
f 35/100/25 36/99/25 34/98/25 33/97/25
f 40/104/26 35/103/26 33/102/26 38/101/26
f 39/108/27 40/107/27 38/106/27 37/105/27
f 38/112/28 33/111/28 34/110/28 37/109/28
f 39/116/29 36/115/29 35/114/29 40/113/29